<mxfile host="Electron" modified="2023-10-15T17:13:35.113Z" agent="Mozilla/5.0 (Windows NT 10.0; Win64; x64) AppleWebKit/537.36 (KHTML, like Gecko) draw.io/21.5.1 Chrome/112.0.5615.204 Electron/24.6.0 Safari/537.36" etag="fBrCpp3qQSEiIjNw2xj-" version="21.5.1" type="device">
  <diagram name="Seite-1" id="Egiy5I2Z8dD9pL0MfjC9">
    <mxGraphModel dx="1422" dy="824" grid="1" gridSize="10" guides="1" tooltips="1" connect="1" arrows="1" fold="1" page="1" pageScale="1" pageWidth="827" pageHeight="1169" math="0" shadow="0">
      <root>
        <mxCell id="0" />
        <mxCell id="1" parent="0" />
        <mxCell id="mpJ9ShXXydCN2BPv3nPt-2" value="" style="whiteSpace=wrap;html=1;aspect=fixed;strokeColor=none;" vertex="1" parent="1">
          <mxGeometry x="198.75" y="148.75" width="372.5" height="372.5" as="geometry" />
        </mxCell>
        <mxCell id="Sev2Rp13nR_YW2gaRYIG-1" value="" style="shape=callout;whiteSpace=wrap;html=1;perimeter=calloutPerimeter;fillColor=#FFFFFF;position2=0.61;base=30;size=10;position=0.58;" parent="1" vertex="1">
          <mxGeometry x="250" y="280" width="270" height="110" as="geometry" />
        </mxCell>
        <mxCell id="Sev2Rp13nR_YW2gaRYIG-2" value="&lt;font style=&quot;font-size: 24px;&quot;&gt;LearnFast&lt;/font&gt;" style="text;html=1;strokeColor=none;fillColor=none;align=center;verticalAlign=middle;whiteSpace=wrap;rounded=0;" parent="1" vertex="1">
          <mxGeometry x="367" y="290" width="114" height="30" as="geometry" />
        </mxCell>
        <mxCell id="Sev2Rp13nR_YW2gaRYIG-3" value="&lt;font style=&quot;font-size: 48px;&quot;&gt;Rhetorix&lt;/font&gt;" style="text;html=1;strokeColor=none;fillColor=none;align=center;verticalAlign=middle;whiteSpace=wrap;rounded=0;" parent="1" vertex="1">
          <mxGeometry x="394" y="330" width="60" height="30" as="geometry" />
        </mxCell>
        <mxCell id="Sev2Rp13nR_YW2gaRYIG-8" value="" style="shape=callout;whiteSpace=wrap;html=1;perimeter=calloutPerimeter;position2=0;size=15;position=0;base=10;fillColor=#000000;" parent="1" vertex="1">
          <mxGeometry x="260" y="305" width="60" height="55" as="geometry" />
        </mxCell>
      </root>
    </mxGraphModel>
  </diagram>
</mxfile>
